<svg 
 xmlns="http://www.w3.org/2000/svg"
 xmlns:xlink="http://www.w3.org/1999/xlink"
 width="16px" height="18px">
<path fill-rule="evenodd"  fill="rgb(118, 118, 118)"
 d="M12.999,17.999 L2.999,17.999 C1.345,17.999 -0.001,16.653 -0.001,14.999 L-0.001,4.999 C-0.001,3.345 1.345,1.999 2.999,1.999 L3.999,1.999 L3.999,0.999 C3.999,0.447 4.447,-0.001 4.999,-0.001 C5.551,-0.001 5.999,0.447 5.999,0.999 L5.999,1.999 L9.999,1.999 L9.999,0.999 C9.999,0.447 10.447,-0.001 10.999,-0.001 C11.551,-0.001 11.999,0.447 11.999,0.999 L11.999,1.999 L12.999,1.999 C14.654,1.999 15.999,3.345 15.999,4.999 L15.999,14.999 C15.999,16.653 14.654,17.999 12.999,17.999 ZM2.999,15.999 L12.999,15.999 C13.551,15.999 13.999,15.550 13.999,14.999 L13.999,7.999 L1.999,7.999 L1.999,14.999 C1.999,15.550 2.448,15.999 2.999,15.999 ZM12.999,3.999 L2.999,3.999 C2.448,3.999 1.999,4.448 1.999,4.999 L1.999,5.999 L13.999,5.999 L13.999,4.999 C13.999,4.448 13.551,3.999 12.999,3.999 ZM11.999,13.999 L7.999,13.999 L7.999,9.999 L11.999,9.999 L11.999,13.999 Z"/>
</svg>