<svg 
 xmlns="http://www.w3.org/2000/svg"
 xmlns:xlink="http://www.w3.org/1999/xlink"
 width="18px" height="18px">
<path fill-rule="evenodd"  fill="rgb(149, 149, 149)"
 d="M15.000,18.000 L3.000,18.000 C1.346,18.000 -0.000,16.654 -0.000,15.000 L-0.000,3.000 C-0.000,1.346 1.346,-0.000 3.000,-0.000 L15.000,-0.000 C16.654,-0.000 18.000,1.346 18.000,3.000 L18.000,15.000 C18.000,16.654 16.654,18.000 15.000,18.000 ZM16.000,3.000 C16.000,2.448 15.552,2.000 15.000,2.000 L3.000,2.000 C2.448,2.000 2.000,2.448 2.000,3.000 L2.000,15.000 C2.000,15.552 2.448,16.000 3.000,16.000 L15.000,16.000 C15.552,16.000 16.000,15.552 16.000,15.000 L16.000,3.000 ZM13.707,13.707 C13.512,13.902 13.256,14.000 13.000,14.000 C12.744,14.000 12.488,13.902 12.293,13.707 L9.000,10.414 L5.707,13.707 C5.512,13.902 5.256,14.000 5.000,14.000 C4.744,14.000 4.488,13.902 4.293,13.707 C3.902,13.316 3.902,12.684 4.293,12.293 L7.586,9.000 L4.293,5.707 C3.902,5.316 3.902,4.684 4.293,4.293 C4.683,3.902 5.316,3.902 5.707,4.293 L9.000,7.586 L12.293,4.293 C12.683,3.902 13.316,3.902 13.707,4.293 C14.098,4.684 14.098,5.316 13.707,5.707 L10.414,9.000 L13.707,12.293 C14.098,12.684 14.098,13.316 13.707,13.707 Z"/>
</svg>