<svg 
 xmlns="http://www.w3.org/2000/svg"
 xmlns:xlink="http://www.w3.org/1999/xlink"
 width="18px" height="16px">
<path fill-rule="evenodd"  fill="rgb(255, 255, 255)"
 d="M18.000,15.000 C18.000,15.552 17.552,16.000 17.000,16.000 C16.447,16.000 16.000,15.552 16.000,15.000 C16.000,12.336 12.728,10.000 9.000,10.000 C5.271,10.000 2.000,12.336 2.000,15.000 C2.000,15.552 1.552,16.000 1.000,16.000 C0.447,16.000 -0.000,15.552 -0.000,15.000 C-0.000,12.161 2.306,9.654 5.510,8.570 C4.581,7.661 4.000,6.398 4.000,5.000 C4.000,2.243 6.243,-0.000 9.000,-0.000 C11.756,-0.000 14.000,2.243 14.000,5.000 C14.000,6.398 13.419,7.661 12.490,8.570 C15.694,9.654 18.000,12.161 18.000,15.000 ZM12.000,5.000 C12.000,3.345 10.654,2.000 9.000,2.000 C7.345,2.000 6.000,3.345 6.000,5.000 C6.000,6.654 7.345,8.000 9.000,8.000 C10.654,8.000 12.000,6.654 12.000,5.000 Z"/>
</svg>