<svg 
 xmlns="http://www.w3.org/2000/svg"
 xmlns:xlink="http://www.w3.org/1999/xlink"
 width="15px" height="14px">
<path fill-rule="evenodd"  fill="rgb(80, 80, 80)"
 d="M14.606,13.707 C14.412,13.902 14.157,13.999 13.903,13.999 C13.649,13.999 13.394,13.902 13.200,13.707 L10.390,10.880 C9.415,11.578 8.231,11.999 6.945,11.999 C3.657,11.999 0.982,9.308 0.982,5.999 C0.982,2.691 3.657,-0.001 6.945,-0.001 C10.234,-0.001 12.909,2.691 12.909,5.999 C12.909,7.293 12.491,8.485 11.796,9.466 L14.606,12.292 C14.994,12.683 14.994,13.316 14.606,13.707 ZM6.945,1.999 C4.753,1.999 2.970,3.794 2.970,5.999 C2.970,8.205 4.753,10.000 6.945,10.000 C9.138,10.000 10.921,8.205 10.921,5.999 C10.921,3.794 9.138,1.999 6.945,1.999 Z"/>
</svg>