<svg 
 xmlns="http://www.w3.org/2000/svg"
 xmlns:xlink="http://www.w3.org/1999/xlink"
 width="10px" height="18px">
<path fill-rule="evenodd"  fill="rgb(16, 16, 16)"
 d="M9.000,10.004 L9.000,11.004 L8.000,11.004 L8.000,12.004 L7.000,12.004 L7.000,13.004 L6.000,13.004 L6.000,14.004 L5.000,14.004 L5.000,15.004 L4.000,15.004 L4.000,16.000 L3.000,16.000 L3.000,17.000 L2.000,17.000 L2.000,18.000 L1.000,18.000 L-0.000,18.000 L-0.000,17.000 L1.000,17.000 L1.000,16.000 L2.000,16.000 L2.000,15.000 L3.000,15.000 L3.000,14.000 L4.000,14.000 L4.000,13.004 L5.000,13.004 L5.000,12.004 L6.000,12.004 L6.000,11.004 L7.000,11.004 L7.000,10.004 L8.000,10.004 L8.000,9.004 L8.000,8.004 L7.000,8.004 L7.000,7.004 L6.000,7.004 L6.000,6.004 L5.000,6.004 L5.000,5.004 L4.000,5.004 L4.000,4.004 L4.000,4.000 L3.000,4.000 L3.000,3.000 L2.000,3.000 L2.000,2.000 L1.000,2.000 L1.000,1.000 L-0.000,1.000 L-0.000,-0.000 L1.000,-0.000 L2.000,-0.000 L2.000,1.000 L3.000,1.000 L3.000,2.000 L4.000,2.000 L4.000,3.004 L5.000,3.004 L5.000,4.004 L6.000,4.004 L6.000,5.004 L7.000,5.004 L7.000,6.004 L8.000,6.004 L8.000,7.004 L9.000,7.004 L9.000,8.004 L10.000,8.004 L10.000,9.004 L10.000,10.004 L9.000,10.004 Z"/>
</svg>