<svg 
 xmlns="http://www.w3.org/2000/svg"
 xmlns:xlink="http://www.w3.org/1999/xlink"
 width="19px" height="12px">
<path fill-rule="evenodd"  fill="rgb(255, 255, 255)"
 d="M15.979,10.084 L9.969,10.084 L9.918,10.084 L3.962,10.084 L0.972,2.660 C2.598,3.533 3.464,3.587 3.464,3.587 C4.618,7.187 6.738,6.522 6.738,6.522 C8.805,5.966 7.818,3.176 7.818,3.176 C9.629,1.764 9.971,-0.000 9.971,-0.000 C9.971,-0.000 10.313,1.764 12.123,3.176 C12.123,3.176 11.136,5.966 13.203,6.522 C13.203,6.522 15.323,7.187 16.477,3.587 C16.477,3.587 17.343,3.533 18.970,2.660 L15.979,10.084 ZM15.108,12.000 L4.837,12.000 L4.323,10.889 L15.622,10.889 L15.108,12.000 Z"/>
</svg>