<svg 
 xmlns="http://www.w3.org/2000/svg"
 xmlns:xlink="http://www.w3.org/1999/xlink"
 width="12px" height="6px">
<path fill-rule="evenodd"  fill="rgb(16, 16, 16)"
 d="M11.004,1.000 L11.004,2.000 L10.004,2.000 L10.004,3.000 L9.004,3.000 L9.004,4.000 L8.004,4.000 L8.004,5.000 L7.004,5.000 L7.004,6.000 L6.004,6.000 L5.004,6.000 L5.004,5.000 L4.004,5.000 L4.004,4.000 L3.004,4.000 L3.004,3.000 L2.004,3.000 L2.004,2.000 L1.004,2.000 L1.004,1.000 L0.004,1.000 L0.004,-0.000 L1.004,-0.000 L2.004,-0.000 L2.004,1.000 L3.004,1.000 L3.004,2.000 L4.004,2.000 L4.004,3.000 L5.004,3.000 L5.004,4.000 L6.004,4.000 L7.004,4.000 L7.004,3.000 L8.004,3.000 L8.004,2.000 L9.004,2.000 L9.004,1.000 L10.004,1.000 L10.004,-0.000 L11.004,-0.000 L12.004,-0.000 L12.004,1.000 L11.004,1.000 Z"/>
</svg>