<svg 
 xmlns="http://www.w3.org/2000/svg"
 xmlns:xlink="http://www.w3.org/1999/xlink"
 width="6px" height="10px">
<path fill-rule="evenodd"  fill="rgb(16, 16, 16)"
 d="M5.000,6.004 L5.000,7.004 L4.000,7.004 L4.000,8.004 L3.000,8.004 L3.000,9.004 L2.000,9.004 L2.000,10.004 L1.000,10.004 L-0.000,10.004 L-0.000,9.004 L1.000,9.004 L1.000,8.004 L2.000,8.004 L2.000,7.004 L3.000,7.004 L3.000,6.004 L4.000,6.004 L4.000,5.004 L4.000,4.004 L3.000,4.004 L3.000,3.004 L2.000,3.004 L2.000,2.004 L1.000,2.004 L1.000,1.004 L-0.000,1.004 L-0.000,0.004 L1.000,0.004 L2.000,0.004 L2.000,1.004 L3.000,1.004 L3.000,2.004 L4.000,2.004 L4.000,3.004 L5.000,3.004 L5.000,4.004 L6.000,4.004 L6.000,5.004 L6.000,6.004 L5.000,6.004 Z"/>
</svg>