<svg 
 xmlns="http://www.w3.org/2000/svg"
 xmlns:xlink="http://www.w3.org/1999/xlink"
 width="10px" height="10px">
<path fill-rule="evenodd"  fill="rgb(16, 16, 16)"
 d="M6.000,6.004 L7.000,6.004 L7.000,7.004 L8.000,7.004 L8.000,8.004 L9.000,8.004 L9.000,9.004 L10.000,9.004 L10.000,10.004 L9.000,10.004 L8.000,10.004 L8.000,9.004 L7.000,9.004 L7.000,8.004 L6.000,8.004 L6.000,7.004 L5.000,7.004 L5.000,6.004 L4.000,6.004 L4.000,5.004 L4.000,4.004 L5.000,4.004 L5.000,3.004 L6.000,3.004 L6.000,2.004 L7.000,2.004 L7.000,1.004 L8.000,1.004 L8.000,0.004 L9.000,0.004 L10.000,0.004 L10.000,1.004 L9.000,1.004 L9.000,2.004 L8.000,2.004 L8.000,3.004 L7.000,3.004 L7.000,4.004 L6.000,4.004 L6.000,5.004 L6.000,6.004 ZM5.000,2.004 L4.000,2.004 L4.000,3.004 L3.000,3.004 L3.000,4.004 L2.000,4.004 L2.000,5.004 L2.000,6.004 L3.000,6.004 L3.000,7.004 L4.000,7.004 L4.000,8.004 L5.000,8.004 L5.000,9.004 L6.000,9.004 L6.000,10.004 L5.000,10.004 L4.000,10.004 L4.000,9.004 L3.000,9.004 L3.000,8.004 L2.000,8.004 L2.000,7.004 L1.000,7.004 L1.000,6.004 L-0.000,6.004 L-0.000,5.004 L-0.000,4.004 L1.000,4.004 L1.000,3.004 L2.000,3.004 L2.000,2.004 L3.000,2.004 L3.000,1.004 L4.000,1.004 L4.000,0.004 L5.000,0.004 L6.000,0.004 L6.000,1.004 L5.000,1.004 L5.000,2.004 Z"/>
</svg>