<svg 
 xmlns="http://www.w3.org/2000/svg"
 xmlns:xlink="http://www.w3.org/1999/xlink"
 width="4px" height="8px">
<path fill-rule="evenodd"  fill="rgb(255, 178, 184)"
 d="M3.000,5.000 L3.000,6.000 L2.000,6.000 L2.000,7.000 L1.000,7.000 L1.000,8.000 L-0.000,8.000 L-0.000,7.000 L-0.000,6.000 L1.000,6.000 L1.000,5.000 L2.000,5.000 L2.000,4.000 L2.000,3.000 L1.000,3.000 L1.000,2.000 L-0.000,2.000 L-0.000,1.000 L-0.000,-0.000 L1.000,-0.000 L1.000,1.000 L2.000,1.000 L2.000,2.000 L3.000,2.000 L3.000,3.000 L4.000,3.000 L4.000,4.000 L4.000,5.000 L3.000,5.000 Z"/>
</svg>