<svg 
 xmlns="http://www.w3.org/2000/svg"
 xmlns:xlink="http://www.w3.org/1999/xlink"
 width="6px" height="12px">
<path fill-rule="evenodd"  fill="rgb(255, 255, 255)"
 d="M5.000,7.000 L5.000,8.000 L4.000,8.000 L4.000,9.000 L3.000,9.000 L3.000,10.000 L2.000,10.000 L2.000,11.000 L1.000,11.000 L1.000,12.000 L0.000,12.000 L0.000,11.000 L0.000,10.000 L1.000,10.000 L1.000,9.000 L2.000,9.000 L2.000,8.000 L3.000,8.000 L3.000,7.000 L4.000,7.000 L4.000,6.000 L4.000,5.000 L3.000,5.000 L3.000,4.000 L2.000,4.000 L2.000,3.000 L1.000,3.000 L1.000,2.000 L0.000,2.000 L0.000,1.000 L0.000,-0.000 L1.000,-0.000 L1.000,1.000 L2.000,1.000 L2.000,2.000 L3.000,2.000 L3.000,3.000 L4.000,3.000 L4.000,4.000 L5.000,4.000 L5.000,5.000 L6.000,5.000 L6.000,6.000 L6.000,7.000 L5.000,7.000 Z"/>
</svg>