<svg 
 xmlns="http://www.w3.org/2000/svg"
 xmlns:xlink="http://www.w3.org/1999/xlink"
 width="235px" height="38px">
<path fill-rule="evenodd"  fill="rgb(255, 255, 255)"
 d="M230.312,29.105 L227.308,21.127 L218.301,21.127 L215.513,29.105 L211.304,29.105 L221.154,1.365 L224.228,1.357 L234.495,29.105 L230.312,29.105 ZM222.637,8.719 L219.787,16.876 L225.708,16.876 L222.637,8.719 ZM181.822,9.620 L181.822,29.105 L178.159,29.105 L178.159,1.349 L181.389,1.349 L194.387,21.061 L194.387,1.349 L198.095,1.349 L198.095,29.105 L194.685,29.105 L181.822,9.620 ZM155.766,1.349 L160.222,1.349 L160.222,29.105 L155.728,29.105 L155.766,1.349 ZM131.926,29.105 L127.988,29.105 L127.941,5.195 L120.530,5.239 L120.518,1.349 L139.513,1.349 L139.513,5.173 L131.926,5.173 L131.926,29.105 ZM92.890,8.649 C92.973,9.876 95.212,11.361 96.068,11.829 C102.815,15.085 103.998,16.924 104.198,17.385 C107.651,22.161 103.995,26.485 103.957,26.528 C101.658,29.122 98.532,29.475 97.002,29.475 C96.474,29.475 96.136,29.433 96.087,29.427 C90.862,28.983 88.579,26.993 88.484,26.909 L88.342,26.781 L88.342,20.969 L89.076,21.747 C92.226,25.087 95.128,25.266 95.156,25.267 L95.204,25.272 C99.411,25.941 100.667,23.538 100.679,23.514 C101.277,22.228 101.068,20.970 100.053,19.786 C99.261,18.863 98.274,18.340 98.264,18.334 C91.505,14.575 90.328,13.335 90.282,13.285 C87.289,10.464 88.407,6.701 88.456,6.543 C89.851,1.667 95.256,1.140 95.310,1.136 C100.301,0.200 104.091,2.746 104.250,2.855 L104.436,2.981 L104.436,8.597 L103.672,7.588 C103.335,7.143 102.221,6.490 101.820,6.276 C98.724,4.458 95.511,5.278 95.479,5.287 C94.260,5.609 93.443,6.141 93.050,6.867 C92.600,7.699 92.866,8.533 92.869,8.541 L92.890,8.649 ZM53.045,1.370 L69.841,1.370 L69.825,5.320 L57.641,5.320 L57.641,13.104 L69.394,13.104 L69.394,17.142 L57.712,17.142 L57.712,25.032 L70.191,25.054 L70.191,29.069 L53.045,29.069 L53.045,1.370 ZM32.131,19.308 C30.494,19.308 29.162,18.074 29.162,16.559 C29.162,15.044 30.494,13.811 32.131,13.811 C33.768,13.811 35.100,15.044 35.100,16.559 C35.100,18.074 33.768,19.308 32.131,19.308 ZM3.254,37.074 C2.656,37.074 2.289,37.011 2.252,37.004 L2.015,36.961 L0.454,32.825 L1.100,32.855 C4.240,33.007 5.349,32.079 5.360,32.069 L5.403,32.035 C5.441,32.007 6.417,31.276 6.433,29.382 L6.433,4.810 L3.013,4.810 L3.013,1.370 L11.216,1.370 L11.216,28.826 C11.287,34.660 7.591,36.086 7.222,36.214 C5.605,36.928 4.163,37.074 3.254,37.074 Z"/>
</svg>