<svg 
 xmlns="http://www.w3.org/2000/svg"
 xmlns:xlink="http://www.w3.org/1999/xlink"
 width="12px" height="6px">
<path fill-rule="evenodd"  fill="rgb(118, 118, 118)"
 d="M11.000,1.000 L11.000,2.000 L10.000,2.000 L10.000,3.000 L9.000,3.000 L9.000,4.000 L8.000,4.000 L8.000,5.000 L7.000,5.000 L7.000,6.000 L6.000,6.000 L5.000,6.000 L5.000,5.000 L4.000,5.000 L4.000,4.000 L3.000,4.000 L3.000,3.000 L2.000,3.000 L2.000,2.000 L1.000,2.000 L1.000,1.000 L-0.000,1.000 L-0.000,-0.000 L1.000,-0.000 L2.000,-0.000 L2.000,1.000 L3.000,1.000 L3.000,2.000 L4.000,2.000 L4.000,3.000 L5.000,3.000 L5.000,4.000 L6.000,4.000 L7.000,4.000 L7.000,3.000 L8.000,3.000 L8.000,2.000 L9.000,2.000 L9.000,1.000 L10.000,1.000 L10.000,-0.000 L11.000,-0.000 L12.000,-0.000 L12.000,1.000 L11.000,1.000 Z"/>
</svg>