<svg 
 xmlns="http://www.w3.org/2000/svg"
 xmlns:xlink="http://www.w3.org/1999/xlink"
 width="20px" height="20px">
<path fill-rule="evenodd"  fill="rgb(191, 197, 202)"
 d="M10.000,-0.000 C15.523,-0.000 20.000,4.477 20.000,10.000 C20.000,15.523 15.523,20.000 10.000,20.000 C4.477,20.000 -0.000,15.523 -0.000,10.000 C-0.000,4.477 4.477,-0.000 10.000,-0.000 Z"/>
<path fill-rule="evenodd"  fill="rgb(255, 255, 255)"
 d="M12.000,11.000 L12.000,12.000 L13.000,12.000 L13.000,13.000 L14.000,13.000 L14.000,14.000 L12.000,14.000 L12.000,13.000 L11.000,13.000 L11.000,12.000 L9.000,12.000 L9.000,13.000 L8.000,13.000 L8.000,14.000 L6.000,14.000 L6.000,13.000 L7.000,13.000 L7.000,12.000 L8.000,12.000 L8.000,11.000 L9.000,11.000 L9.000,10.000 L8.000,10.000 L8.000,9.000 L7.000,9.000 L7.000,8.000 L6.000,8.000 L6.000,7.000 L8.000,7.000 L8.000,8.000 L9.000,8.000 L9.000,9.000 L11.000,9.000 L11.000,8.000 L12.000,8.000 L12.000,7.000 L14.000,7.000 L14.000,8.000 L13.000,8.000 L13.000,9.000 L12.000,9.000 L12.000,10.000 L11.000,10.000 L11.000,11.000 L12.000,11.000 Z"/>
</svg>