<svg 
 xmlns="http://www.w3.org/2000/svg"
 xmlns:xlink="http://www.w3.org/1999/xlink"
 width="20px" height="21px">
<path fill-rule="evenodd"  fill="rgb(255, 255, 255)"
 d="M13.837,20.969 L6.162,20.969 C2.758,20.969 -0.000,18.211 -0.000,14.808 L-0.000,7.133 C-0.000,3.729 2.758,0.970 6.162,0.970 L13.837,0.970 C17.240,0.970 19.999,3.729 19.999,7.133 L19.999,14.808 C19.999,18.211 17.240,20.969 13.837,20.969 ZM18.079,7.868 C18.079,5.119 15.849,2.889 13.101,2.889 L6.898,2.889 C4.148,2.889 1.919,5.119 1.919,7.868 L1.919,14.071 C1.919,16.822 4.148,19.050 6.898,19.050 L13.101,19.050 C15.849,19.050 18.079,16.822 18.079,14.071 L18.079,7.868 ZM15.170,6.994 C14.430,6.994 13.831,6.395 13.831,5.655 C13.831,4.915 14.430,4.314 15.170,4.314 C15.909,4.314 16.510,4.915 16.510,5.655 C16.510,6.395 15.909,6.994 15.170,6.994 ZM15.535,11.005 C15.535,13.913 13.177,16.272 10.267,16.272 C7.357,16.272 4.999,13.913 4.999,11.005 C4.999,8.095 7.357,5.737 10.267,5.737 C13.177,5.737 15.535,8.095 15.535,11.005 ZM10.267,7.835 C8.516,7.835 7.097,9.253 7.097,11.005 C7.097,12.755 8.516,14.174 10.267,14.174 C12.017,14.174 13.436,12.755 13.436,11.005 C13.436,9.253 12.017,7.835 10.267,7.835 Z"/>
</svg>