<svg 
 xmlns="http://www.w3.org/2000/svg"
 xmlns:xlink="http://www.w3.org/1999/xlink"
 width="18px" height="18px">
<path fill-rule="evenodd"  fill="rgb(16, 16, 16)"
 d="M-0.000,18.000 L-0.000,16.000 L18.000,16.000 L18.000,18.000 L-0.000,18.000 ZM12.000,10.000 L11.000,10.000 L11.000,11.000 L10.000,11.000 L10.000,12.000 L9.000,12.000 L8.000,12.000 L8.000,11.000 L7.000,11.000 L7.000,10.000 L6.000,10.000 L6.000,9.000 L5.000,9.000 L5.000,8.000 L6.000,8.000 L7.000,8.000 L7.000,9.000 L8.000,9.000 L8.000,-0.000 L10.000,-0.000 L10.000,9.000 L11.000,9.000 L11.000,8.000 L12.000,8.000 L13.000,8.000 L13.000,9.000 L12.000,9.000 L12.000,10.000 Z"/>
</svg>