<?xml version="1.0" encoding="iso-8859-1"?>
<!-- Generator: Adobe Illustrator 16.0.0, SVG Export Plug-In . SVG Version: 6.00 Build 0)  -->
<!DOCTYPE svg PUBLIC "-//W3C//DTD SVG 1.1//EN" "http://www.w3.org/Graphics/SVG/1.1/DTD/svg11.dtd">
<svg version="1.1" id="Layer_1" xmlns="http://www.w3.org/2000/svg" xmlns:xlink="http://www.w3.org/1999/xlink" x="0px" y="0px"
	 width="58px" height="58px" viewBox="0 0 58 58" style="enable-background:new 0 0 58 58;" xml:space="preserve">
<g>
	<defs>
		<rect id="SVGID_1_" width="58" height="58"/>
	</defs>
	<clipPath id="SVGID_2_">
		<use xlink:href="#SVGID_1_"  style="overflow:visible;"/>
	</clipPath>
	<path style="clip-path:url(#SVGID_2_);" d="M25.481,13H0.519C0.231,13,0,12.776,0,12.5S0.231,12,0.519,12h24.963
		C25.769,12,26,12.224,26,12.5S25.769,13,25.481,13"/>
	<path style="clip-path:url(#SVGID_2_);" d="M13.5,26c-0.276,0-0.5-0.232-0.5-0.519V0.519C13,0.232,13.224,0,13.5,0
		S14,0.232,14,0.519v24.962C14,25.768,13.776,26,13.5,26"/>
	<path style="clip-path:url(#SVGID_2_);fill:#FF6C7A;" d="M55.407,26H34.593C33.163,26,32,24.837,32,23.407V2.593
		C32,1.163,33.163,0,34.593,0h20.814C56.838,0,58,1.163,58,2.593v20.814C58,24.837,56.838,26,55.407,26 M34.593,1.037
		c-0.858,0-1.557,0.698-1.557,1.556v20.814c0,0.858,0.698,1.556,1.557,1.556h20.814c0.858,0,1.556-0.698,1.556-1.556V2.593
		c0-0.858-0.697-1.556-1.556-1.556H34.593z"/>
	<path style="clip-path:url(#SVGID_2_);" d="M13,58C5.831,58,0,52.169,0,45s5.831-13,13-13s13,5.831,13,13S20.169,58,13,58
		 M13,32.963c-6.637,0-12.037,5.4-12.037,12.037S6.363,57.037,13,57.037S25.037,51.637,25.037,45S19.637,32.963,13,32.963"/>
	<path style="clip-path:url(#SVGID_2_);" d="M57.481,58H32.519c-0.18,0-0.347-0.093-0.441-0.246
		c-0.094-0.152-0.102-0.344-0.022-0.505l12.481-24.986c0.176-0.351,0.752-0.351,0.928,0l12.481,24.986
		c0.08,0.161,0.072,0.353-0.022,0.505C57.828,57.907,57.661,58,57.481,58 M33.357,56.962h23.286L45,33.656L33.357,56.962z"/>
</g>
</svg>
