<?xml version="1.0" encoding="iso-8859-1"?>
<!-- Generator: Adobe Illustrator 16.0.0, SVG Export Plug-In . SVG Version: 6.00 Build 0)  -->
<!DOCTYPE svg PUBLIC "-//W3C//DTD SVG 1.1//EN" "http://www.w3.org/Graphics/SVG/1.1/DTD/svg11.dtd">
<svg version="1.1" id="Layer_1" xmlns="http://www.w3.org/2000/svg" xmlns:xlink="http://www.w3.org/1999/xlink" x="0px" y="0px"
	 width="58px" height="58px" viewBox="0 0 58 58" style="enable-background:new 0 0 58 58;" xml:space="preserve">
<g>
	<defs>
		<rect id="SVGID_1_" width="58" height="58"/>
	</defs>
	<clipPath id="SVGID_2_">
		<use xlink:href="#SVGID_1_"  style="overflow:visible;"/>
	</clipPath>
	<path style="clip-path:url(#SVGID_2_);" d="M57.558,54.042L31.048,15.09c-0.368-0.541-0.927-0.898-1.548-1.028V9H29h-0.5v1v4.062
		c-0.621,0.13-1.179,0.487-1.547,1.028L0.442,54.042c-0.533,0.782-0.588,1.789-0.145,2.628C0.738,57.503,1.558,58,2.489,58h53.022
		c0.932,0,1.75-0.497,2.19-1.329C58.146,55.832,58.092,54.825,57.558,54.042 M27.78,15.652C28.063,15.238,28.507,15,29,15
		c0.493,0,0.938,0.238,1.221,0.652l8.704,12.789l-4.693,5.987C33.945,34.791,33.499,35,33.005,35h-0.003
		c-0.494-0.001-0.941-0.21-1.227-0.575l-3.381-4.332c-0.446-0.57-1.134-0.92-1.888-0.956c-0.763-0.036-1.489,0.248-1.996,0.782
		l-1.167,1.23c-0.313,0.33-0.766,0.503-1.25,0.47c-0.471-0.03-0.889-0.252-1.148-0.607l-1.87-2.57L27.78,15.652z M56.818,56.203
		C56.555,56.702,56.065,57,55.512,57H2.489c-0.555,0-1.044-0.298-1.307-0.798c-0.274-0.518-0.242-1.115,0.087-1.598L18.479,29.32
		l1.658,2.28c0.435,0.597,1.124,0.967,1.892,1.017c0.776,0.051,1.522-0.234,2.04-0.78l1.168-1.229
		c0.306-0.323,0.76-0.499,1.222-0.473c0.463,0.022,0.881,0.231,1.148,0.572l3.381,4.332c0.475,0.609,1.209,0.959,2.014,0.96h0.004
		c0.804,0,1.537-0.349,2.014-0.955l4.497-5.735l17.216,25.295C57.06,55.088,57.093,55.686,56.818,56.203"/>
	<path style="clip-path:url(#SVGID_2_);fill:#FF6C7A;" d="M38.901,5l3.482-4.18c0.124-0.149,0.151-0.357,0.069-0.532
		C42.371,0.112,42.194,0,42,0H29c-0.276,0-0.5,0.224-0.5,0.5V9v0.5c0,0.276,0.224,0.5,0.5,0.5h0.5H42
		c0.194,0,0.371-0.112,0.453-0.288c0.082-0.175,0.055-0.383-0.069-0.532L38.901,5z M29.5,9V1h11.433l-3.066,3.68
		c-0.155,0.185-0.155,0.455,0,0.64L40.933,9H29.5z"/>
</g>
</svg>
