<?xml version="1.0" encoding="iso-8859-1"?>
<!-- Generator: Adobe Illustrator 16.0.0, SVG Export Plug-In . SVG Version: 6.00 Build 0)  -->
<!DOCTYPE svg PUBLIC "-//W3C//DTD SVG 1.1//EN" "http://www.w3.org/Graphics/SVG/1.1/DTD/svg11.dtd">
<svg version="1.1" id="Layer_1" xmlns="http://www.w3.org/2000/svg" xmlns:xlink="http://www.w3.org/1999/xlink" x="0px" y="0px"
	 width="58px" height="50px" viewBox="0 0 58 50" style="enable-background:new 0 0 58 50;" xml:space="preserve">
<g>
	<defs>
		<rect id="SVGID_1_" width="58" height="50"/>
	</defs>
	<clipPath id="SVGID_2_">
		<use xlink:href="#SVGID_1_"  style="overflow:visible;"/>
	</clipPath>
	<path style="clip-path:url(#SVGID_2_);" d="M55.5,0h-36C18.122,0,17,1.121,17,2.5V13H2.5C1.122,13,0,14.121,0,15.5v23
		C0,39.879,1.122,41,2.5,41h1v8.5c0,0.193,0.111,0.369,0.286,0.452C3.854,49.984,3.927,50,4,50c0.113,0,0.226-0.038,0.316-0.113
		L15.179,41H38.5c1.378,0,2.5-1.121,2.5-2.5V28h1.821l10.862,8.887C53.774,36.962,53.887,37,54,37c0.073,0,0.146-0.016,0.214-0.048
		c0.175-0.083,0.286-0.259,0.286-0.452V28h1c1.379,0,2.5-1.121,2.5-2.5v-23C58,1.121,56.879,0,55.5,0 M40,38.5
		c0,0.827-0.673,1.5-1.5,1.5H15c-0.115,0-0.227,0.04-0.316,0.113L4.5,48.445V40.5C4.5,40.224,4.276,40,4,40H2.5
		C1.673,40,1,39.327,1,38.5v-23C1,14.673,1.673,14,2.5,14H17v11.5c0,1.379,1.122,2.5,2.5,2.5H40V38.5z M57,25.5
		c0,0.827-0.673,1.5-1.5,1.5H54c-0.276,0-0.5,0.224-0.5,0.5v7.945l-10.184-8.332C43.228,27.04,43.115,27,43,27h-2.5h-21
		c-0.827,0-1.5-0.673-1.5-1.5v-12v-11C18,1.673,18.673,1,19.5,1h36C56.327,1,57,1.673,57,2.5V25.5z"/>
	<path style="clip-path:url(#SVGID_2_);fill:#FF6C7A;" d="M28.5,17c-1.654,0-3-1.346-3-3s1.346-3,3-3c1.654,0,3,1.346,3,3
		S30.154,17,28.5,17 M28.5,12c-1.103,0-2,0.897-2,2s0.897,2,2,2c1.103,0,2-0.897,2-2S29.603,12,28.5,12"/>
	<path style="clip-path:url(#SVGID_2_);fill:#FF6C7A;" d="M37.5,17c-1.654,0-3-1.346-3-3s1.346-3,3-3s3,1.346,3,3S39.154,17,37.5,17
		 M37.5,12c-1.103,0-2,0.897-2,2s0.897,2,2,2s2-0.897,2-2S38.603,12,37.5,12"/>
	<path style="clip-path:url(#SVGID_2_);fill:#FF6C7A;" d="M46.5,17c-1.654,0-3-1.346-3-3s1.346-3,3-3s3,1.346,3,3S48.154,17,46.5,17
		 M46.5,12c-1.103,0-2,0.897-2,2s0.897,2,2,2s2-0.897,2-2S47.603,12,46.5,12"/>
</g>
</svg>
