<svg 
 xmlns="http://www.w3.org/2000/svg"
 xmlns:xlink="http://www.w3.org/1999/xlink"
 width="25px" height="19px">
<path fill-rule="evenodd"  fill="rgb(118, 118, 118)"
 d="M25.000,9.769 L25.000,9.769 C24.997,8.577 24.951,7.360 24.679,5.106 C24.252,1.554 22.415,1.427 21.474,1.221 C19.444,0.777 12.500,0.888 12.500,0.888 C12.500,0.888 5.555,0.777 3.526,1.221 C2.585,1.427 0.748,1.554 0.320,5.106 C0.049,7.360 0.003,8.577 0.000,9.769 L-0.000,9.769 C-0.000,9.787 0.000,9.806 0.000,9.824 C0.000,9.843 -0.000,9.861 -0.000,9.880 L0.000,9.880 C0.003,11.072 0.049,12.387 0.320,14.641 C0.748,18.193 2.585,18.321 3.526,18.527 C5.555,18.971 12.500,18.859 12.500,18.859 C12.500,18.859 19.444,18.971 21.474,18.527 C22.415,18.321 24.252,18.193 24.679,14.641 C24.951,12.387 24.997,11.072 25.000,9.880 L25.000,9.880 C25.000,9.861 25.000,9.843 25.000,9.824 C25.000,9.806 25.000,9.787 25.000,9.769 ZM9.402,14.040 L9.402,5.708 L17.201,9.929 L9.402,14.040 Z"/>
</svg>