<svg 
 xmlns="http://www.w3.org/2000/svg"
 xmlns:xlink="http://www.w3.org/1999/xlink"
 width="16px" height="8px">
<path fill-rule="evenodd"  fill="rgb(16, 16, 16)"
 d="M15.000,1.000 L15.000,2.000 L14.000,2.000 L14.000,3.000 L13.000,3.000 L13.000,4.000 L12.000,4.000 L12.000,5.000 L11.000,5.000 L11.000,6.000 L10.000,6.000 L10.000,7.000 L9.000,7.000 L9.000,8.000 L8.000,8.000 L7.000,8.000 L7.000,7.000 L6.000,7.000 L6.000,6.000 L5.000,6.000 L5.000,5.000 L4.000,5.000 L4.000,4.000 L3.000,4.000 L3.000,3.000 L2.000,3.000 L2.000,2.000 L1.000,2.000 L1.000,1.000 L-0.000,1.000 L-0.000,-0.000 L1.000,-0.000 L2.000,-0.000 L2.000,1.000 L3.000,1.000 L3.000,2.000 L4.000,2.000 L4.000,3.000 L5.000,3.000 L5.000,4.000 L6.000,4.000 L6.000,5.000 L7.000,5.000 L7.000,6.000 L8.000,6.000 L9.000,6.000 L9.000,5.000 L10.000,5.000 L10.000,4.000 L11.000,4.000 L11.000,3.000 L12.000,3.000 L12.000,2.000 L13.000,2.000 L13.000,1.000 L14.000,1.000 L14.000,-0.000 L15.000,-0.000 L16.000,-0.000 L16.000,1.000 L15.000,1.000 Z"/>
</svg>