<svg 
 xmlns="http://www.w3.org/2000/svg"
 xmlns:xlink="http://www.w3.org/1999/xlink"
 width="19px" height="18px">
<path fill-rule="evenodd"  fill="rgb(16, 16, 16)"
 d="M18.584,16.293 L15.206,12.897 C16.255,11.542 16.885,9.845 16.885,8.000 C16.885,3.589 13.314,-0.000 8.924,-0.000 C4.535,-0.000 0.963,3.589 0.963,8.000 C0.963,12.411 4.535,16.000 8.924,16.000 C10.761,16.000 12.449,15.366 13.797,14.312 L17.177,17.707 C17.371,17.902 17.626,18.000 17.880,18.000 C18.135,18.000 18.390,17.902 18.584,17.707 C18.973,17.316 18.973,16.683 18.584,16.293 M2.953,8.000 C2.953,4.691 5.632,2.000 8.924,2.000 C12.217,2.000 14.895,4.691 14.895,8.000 C14.895,11.308 12.217,14.000 8.924,14.000 C5.632,14.000 2.953,11.308 2.953,8.000 "/>
</svg>