<svg 
 xmlns="http://www.w3.org/2000/svg"
 xmlns:xlink="http://www.w3.org/1999/xlink"
 width="10px" height="18px">
<path fill-rule="evenodd"  fill="rgb(16, 16, 16)"
 d="M2.000,10.004 L3.000,10.004 L3.000,11.004 L4.000,11.004 L4.000,12.004 L5.000,12.004 L5.000,13.004 L6.000,13.004 L6.000,14.000 L7.000,14.000 L7.000,15.000 L8.000,15.000 L8.000,16.000 L9.000,16.000 L9.000,17.000 L10.000,17.000 L10.000,18.000 L9.000,18.000 L8.000,18.000 L8.000,17.000 L7.000,17.000 L7.000,16.000 L6.000,16.000 L6.000,15.004 L5.000,15.004 L5.000,14.004 L4.000,14.004 L4.000,13.004 L3.000,13.004 L3.000,12.004 L2.000,12.004 L2.000,11.004 L1.000,11.004 L1.000,10.004 L-0.000,10.004 L-0.000,9.004 L-0.000,8.004 L1.000,8.004 L1.000,7.004 L2.000,7.004 L2.000,6.004 L3.000,6.004 L3.000,5.004 L4.000,5.004 L4.000,4.004 L5.000,4.004 L5.000,3.004 L6.000,3.004 L6.000,2.000 L7.000,2.000 L7.000,1.000 L8.000,1.000 L8.000,-0.000 L9.000,-0.000 L10.000,-0.000 L10.000,1.000 L9.000,1.000 L9.000,2.000 L8.000,2.000 L8.000,3.000 L7.000,3.000 L7.000,4.000 L6.000,4.000 L6.000,4.004 L6.000,5.004 L5.000,5.004 L5.000,6.004 L4.000,6.004 L4.000,7.004 L3.000,7.004 L3.000,8.004 L2.000,8.004 L2.000,9.004 L2.000,10.004 Z"/>
</svg>