<svg 
 xmlns="http://www.w3.org/2000/svg"
 xmlns:xlink="http://www.w3.org/1999/xlink"
 width="18px" height="18px">
<path fill-rule="evenodd"  fill="rgb(255, 255, 255)"
 d="M17.586,8.342 L15.606,6.352 C15.606,6.352 15.606,6.352 15.606,6.351 L9.664,0.381 C9.277,-0.008 8.650,-0.008 8.263,0.381 L2.321,6.351 C2.321,6.352 2.321,6.352 2.320,6.352 L0.341,8.342 C-0.046,8.731 -0.046,9.360 0.341,9.749 C0.728,10.138 1.354,10.138 1.741,9.749 L2.031,9.458 L2.031,17.007 C2.031,17.556 2.475,18.002 3.022,18.002 L14.906,18.002 C15.452,18.002 15.896,17.556 15.896,17.007 L15.896,9.458 L16.186,9.749 C16.379,9.943 16.633,10.041 16.886,10.041 C17.140,10.041 17.393,9.943 17.586,9.749 C17.973,9.360 17.973,8.731 17.586,8.342 M13.915,16.011 L4.012,16.011 L4.012,7.467 L8.964,2.492 L13.915,7.467 L13.915,16.011 Z"/>
</svg>