<svg 
 xmlns="http://www.w3.org/2000/svg"
 xmlns:xlink="http://www.w3.org/1999/xlink"
 width="14px" height="18px">
<path fill-rule="evenodd"  fill="rgb(16, 16, 16)"
 d="M13.000,10.004 L13.000,11.004 L12.000,11.004 L12.000,12.004 L11.000,12.004 L11.000,13.004 L10.000,13.004 L10.000,14.004 L9.000,14.004 L9.000,15.004 L8.000,15.004 L8.000,16.000 L7.000,16.000 L7.000,17.000 L6.000,17.000 L6.000,18.000 L5.000,18.000 L4.000,18.000 L4.000,17.000 L5.000,17.000 L5.000,16.000 L6.000,16.000 L6.000,15.000 L7.000,15.000 L7.000,14.000 L8.000,14.000 L8.000,13.004 L9.000,13.004 L9.000,12.004 L10.000,12.004 L10.000,11.004 L11.000,11.004 L11.000,10.004 L12.000,10.004 L12.000,9.004 L12.000,8.004 L11.000,8.004 L11.000,7.004 L10.000,7.004 L10.000,6.004 L9.000,6.004 L9.000,5.004 L8.000,5.004 L8.000,4.004 L8.000,4.000 L7.000,4.000 L7.000,3.000 L6.000,3.000 L6.000,2.000 L5.000,2.000 L5.000,1.000 L4.000,1.000 L4.000,-0.000 L5.000,-0.000 L6.000,-0.000 L6.000,1.000 L7.000,1.000 L7.000,2.000 L8.000,2.000 L8.000,3.004 L9.000,3.004 L9.000,4.004 L10.000,4.004 L10.000,5.004 L11.000,5.004 L11.000,6.004 L12.000,6.004 L12.000,7.004 L13.000,7.004 L13.000,8.004 L14.000,8.004 L14.000,9.004 L14.000,10.004 L13.000,10.004 ZM4.000,3.004 L5.000,3.004 L5.000,4.004 L6.000,4.004 L6.000,5.004 L7.000,5.004 L7.000,6.004 L8.000,6.004 L8.000,7.004 L9.000,7.004 L9.000,8.004 L10.000,8.004 L10.000,9.004 L10.000,10.004 L9.000,10.004 L9.000,11.004 L8.000,11.004 L8.000,12.004 L7.000,12.004 L7.000,13.004 L6.000,13.004 L6.000,14.004 L5.000,14.004 L5.000,15.004 L4.000,15.004 L4.000,16.000 L3.000,16.000 L3.000,17.000 L2.000,17.000 L2.000,18.000 L1.000,18.000 L-0.000,18.000 L-0.000,17.000 L1.000,17.000 L1.000,16.000 L2.000,16.000 L2.000,15.000 L3.000,15.000 L3.000,14.000 L4.000,14.000 L4.000,13.004 L5.000,13.004 L5.000,12.004 L6.000,12.004 L6.000,11.004 L7.000,11.004 L7.000,10.004 L8.000,10.004 L8.000,9.004 L8.000,8.004 L7.000,8.004 L7.000,7.004 L6.000,7.004 L6.000,6.004 L5.000,6.004 L5.000,5.004 L4.000,5.004 L4.000,4.004 L4.000,4.000 L3.000,4.000 L3.000,3.000 L2.000,3.000 L2.000,2.000 L1.000,2.000 L1.000,1.000 L-0.000,1.000 L-0.000,-0.000 L1.000,-0.000 L2.000,-0.000 L2.000,1.000 L3.000,1.000 L3.000,2.000 L4.000,2.000 L4.000,3.004 Z"/>
</svg>