<svg 
 xmlns="http://www.w3.org/2000/svg"
 xmlns:xlink="http://www.w3.org/1999/xlink"
 width="8px" height="16px">
<path fill-rule="evenodd"  fill="rgb(80, 80, 80)"
 d="M7.000,9.000 L7.000,10.000 L6.000,10.000 L6.000,11.000 L5.000,11.000 L5.000,12.000 L4.000,12.000 L4.000,13.000 L3.000,13.000 L3.000,14.000 L2.000,14.000 L2.000,15.000 L1.000,15.000 L1.000,16.000 L-0.000,16.000 L-0.000,15.000 L-0.000,14.000 L1.000,14.000 L1.000,13.000 L2.000,13.000 L2.000,12.000 L3.000,12.000 L3.000,11.000 L4.000,11.000 L4.000,10.000 L5.000,10.000 L5.000,9.000 L6.000,9.000 L6.000,8.000 L6.000,7.000 L5.000,7.000 L5.000,6.000 L4.000,6.000 L4.000,5.000 L3.000,5.000 L3.000,4.000 L2.000,4.000 L2.000,3.000 L1.000,3.000 L1.000,2.000 L-0.000,2.000 L-0.000,1.000 L-0.000,-0.000 L1.000,-0.000 L1.000,1.000 L2.000,1.000 L2.000,2.000 L3.000,2.000 L3.000,3.000 L4.000,3.000 L4.000,4.000 L5.000,4.000 L5.000,5.000 L6.000,5.000 L6.000,6.000 L7.000,6.000 L7.000,7.000 L8.000,7.000 L8.000,8.000 L8.000,9.000 L7.000,9.000 Z"/>
</svg>