<svg 
 xmlns="http://www.w3.org/2000/svg"
 xmlns:xlink="http://www.w3.org/1999/xlink"
 width="155px" height="25px">
<path fill-rule="evenodd"  fill="rgb(255, 178, 184)"
 d="M152.230,19.206 L150.241,13.908 L144.276,13.908 L142.429,19.206 L139.641,19.206 L146.164,0.783 L148.201,0.778 L155.000,19.206 L152.230,19.206 ZM147.147,5.667 L145.259,11.084 L149.181,11.084 L147.147,5.667 ZM120.116,6.266 L120.116,19.206 L117.690,19.206 L117.690,0.773 L119.829,0.773 L128.437,13.864 L128.437,0.773 L130.894,0.773 L130.894,19.206 L128.635,19.206 L120.116,6.266 ZM102.860,0.773 L105.811,0.773 L105.811,19.206 L102.835,19.206 L102.860,0.773 ZM87.071,19.206 L84.463,19.206 L84.432,3.327 L79.524,3.356 L79.516,0.773 L92.096,0.773 L92.096,3.313 L87.071,3.313 L87.071,19.206 ZM61.219,5.621 C61.274,6.436 62.756,7.421 63.323,7.733 C67.792,9.895 68.575,11.116 68.707,11.423 C70.995,14.594 68.573,17.466 68.548,17.494 C67.025,19.217 64.955,19.452 63.942,19.452 C63.592,19.452 63.368,19.424 63.336,19.420 C59.876,19.124 58.363,17.803 58.301,17.747 L58.206,17.663 L58.206,13.803 L58.692,14.320 C60.779,16.537 62.700,16.656 62.719,16.657 L62.751,16.660 C65.537,17.104 66.369,15.509 66.377,15.493 C66.773,14.638 66.635,13.804 65.962,13.017 C65.438,12.404 64.784,12.057 64.778,12.053 C60.302,9.557 59.522,8.733 59.491,8.699 C57.509,6.826 58.249,4.328 58.282,4.222 C59.206,0.984 62.785,0.634 62.822,0.631 C66.127,0.010 68.637,1.701 68.742,1.772 L68.865,1.857 L68.865,5.586 L68.359,4.916 C68.136,4.620 67.398,4.187 67.133,4.045 C65.082,2.838 62.954,3.382 62.933,3.388 C62.126,3.602 61.585,3.955 61.325,4.437 C61.026,4.990 61.203,5.544 61.205,5.549 L61.219,5.621 ZM34.830,0.787 L45.954,0.787 L45.943,3.410 L37.874,3.410 L37.874,8.579 L45.658,8.579 L45.658,11.261 L37.921,11.261 L37.921,16.501 L46.185,16.516 L46.185,19.182 L34.830,19.182 L34.830,0.787 ZM20.979,12.699 C19.895,12.699 19.013,11.880 19.013,10.874 C19.013,9.867 19.895,9.049 20.979,9.049 C22.063,9.049 22.945,9.867 22.945,10.874 C22.945,11.880 22.063,12.699 20.979,12.699 ZM1.854,24.498 C1.459,24.498 1.215,24.456 1.191,24.452 L1.034,24.423 L-0.000,21.676 L0.428,21.697 C2.508,21.797 3.242,21.181 3.249,21.174 L3.278,21.151 C3.303,21.133 3.949,20.647 3.960,19.390 L3.960,3.071 L1.695,3.071 L1.695,0.787 L7.127,0.787 L7.127,19.020 C7.175,22.895 4.727,23.842 4.482,23.926 C3.412,24.401 2.457,24.498 1.854,24.498 Z"/>
</svg>