<svg 
 xmlns="http://www.w3.org/2000/svg"
 xmlns:xlink="http://www.w3.org/1999/xlink"
 width="12px" height="24px">
<path fill-rule="evenodd"  fill="rgb(16, 16, 16)"
 d="M11.000,13.000 L11.000,14.000 L10.000,14.000 L10.000,15.000 L9.000,15.000 L9.000,16.000 L8.000,16.000 L8.000,17.000 L7.000,17.000 L7.000,18.000 L6.000,18.000 L6.000,19.000 L5.000,19.000 L5.000,20.000 L4.000,20.000 L4.000,21.000 L3.000,21.000 L3.000,22.000 L2.000,22.000 L2.000,23.000 L1.000,23.000 L1.000,24.000 L-0.000,24.000 L-0.000,23.000 L-0.000,22.000 L1.000,22.000 L1.000,21.000 L2.000,21.000 L2.000,20.000 L3.000,20.000 L3.000,19.000 L4.000,19.000 L4.000,18.000 L5.000,18.000 L5.000,17.000 L6.000,17.000 L6.000,16.000 L7.000,16.000 L7.000,15.000 L8.000,15.000 L8.000,14.000 L9.000,14.000 L9.000,13.000 L10.000,13.000 L10.000,12.000 L10.000,11.000 L9.000,11.000 L9.000,10.000 L8.000,10.000 L8.000,9.000 L7.000,9.000 L7.000,8.000 L6.000,8.000 L6.000,7.000 L5.000,7.000 L5.000,6.000 L4.000,6.000 L4.000,5.000 L3.000,5.000 L3.000,4.000 L2.000,4.000 L2.000,3.000 L1.000,3.000 L1.000,2.000 L-0.000,2.000 L-0.000,1.000 L-0.000,-0.000 L1.000,-0.000 L1.000,1.000 L2.000,1.000 L2.000,2.000 L3.000,2.000 L3.000,3.000 L4.000,3.000 L4.000,4.000 L5.000,4.000 L5.000,5.000 L6.000,5.000 L6.000,6.000 L7.000,6.000 L7.000,7.000 L8.000,7.000 L8.000,8.000 L9.000,8.000 L9.000,9.000 L10.000,9.000 L10.000,10.000 L11.000,10.000 L11.000,11.000 L12.000,11.000 L12.000,12.000 L12.000,13.000 L11.000,13.000 Z"/>
</svg>