<svg 
 xmlns="http://www.w3.org/2000/svg"
 xmlns:xlink="http://www.w3.org/1999/xlink"
 width="16px" height="8px">
<path fill-rule="evenodd"  fill="rgb(16, 16, 16)"
 d="M15.000,1.000 L15.000,2.000 L13.995,2.000 L13.995,3.000 L12.995,3.000 L12.995,4.000 L11.995,4.000 L11.995,5.000 L10.995,5.000 L10.995,6.000 L9.995,6.000 L9.995,7.000 L8.995,7.000 L8.995,8.000 L7.995,8.000 L6.995,8.000 L6.995,7.000 L5.995,7.000 L5.995,6.000 L4.996,6.000 L4.996,5.000 L3.996,5.000 L3.996,4.000 L2.996,4.000 L2.996,3.000 L1.996,3.000 L1.996,2.000 L1.000,2.000 L1.000,1.000 L-0.000,1.000 L-0.000,-0.000 L2.000,-0.000 L2.000,1.000 L3.000,1.000 L3.000,2.000 L3.996,2.000 L3.996,3.000 L4.996,3.000 L4.996,4.000 L5.995,4.000 L5.995,5.000 L6.995,5.000 L6.995,6.000 L7.995,6.000 L8.995,6.000 L8.995,5.000 L9.995,5.000 L9.995,4.000 L10.995,4.000 L10.995,3.000 L11.995,3.000 L11.995,2.000 L12.995,2.000 L13.000,2.000 L13.000,1.000 L14.000,1.000 L14.000,-0.000 L16.000,-0.000 L16.000,1.000 L15.000,1.000 Z"/>
</svg>