<svg 
 xmlns="http://www.w3.org/2000/svg"
 xmlns:xlink="http://www.w3.org/1999/xlink"
 width="64px" height="19px">
<path fill-rule="evenodd"  fill="rgb(255, 255, 255)"
 d="M64.000,9.000 L64.000,10.000 L3.000,10.000 L3.000,11.000 L4.000,11.000 L4.000,12.000 L5.000,12.000 L5.000,13.000 L6.000,13.000 L6.000,14.000 L7.000,14.000 L7.000,15.000 L8.000,15.000 L8.000,16.000 L9.000,16.000 L9.000,17.000 L10.000,17.000 L10.000,18.000 L10.000,19.000 L9.000,19.000 L9.000,18.000 L8.000,18.000 L8.000,17.000 L7.000,17.000 L7.000,16.000 L6.000,16.000 L6.000,15.000 L5.000,15.000 L5.000,14.000 L4.000,14.000 L4.000,13.000 L3.000,13.000 L3.000,12.000 L2.000,12.000 L2.000,11.000 L1.000,11.000 L1.000,10.000 L-0.000,10.000 L-0.000,9.000 L1.000,9.000 L1.000,8.000 L2.000,8.000 L2.000,7.000 L3.000,7.000 L3.000,6.000 L4.000,6.000 L4.000,5.000 L5.000,5.000 L5.000,4.000 L6.000,4.000 L6.000,3.000 L7.000,3.000 L7.000,2.000 L8.000,2.000 L8.000,1.000 L9.000,1.000 L9.000,-0.000 L10.000,-0.000 L10.000,1.000 L10.000,2.000 L9.000,2.000 L9.000,3.000 L8.000,3.000 L8.000,4.000 L7.000,4.000 L7.000,5.000 L6.000,5.000 L6.000,6.000 L5.000,6.000 L5.000,7.000 L4.000,7.000 L4.000,8.000 L3.000,8.000 L3.000,9.000 L64.000,9.000 Z"/>
</svg>