<?xml version="1.0" encoding="iso-8859-1"?>
<!-- Generator: Adobe Illustrator 16.0.0, SVG Export Plug-In . SVG Version: 6.00 Build 0)  -->
<!DOCTYPE svg PUBLIC "-//W3C//DTD SVG 1.1//EN" "http://www.w3.org/Graphics/SVG/1.1/DTD/svg11.dtd">
<svg version="1.1" id="Layer_1" xmlns="http://www.w3.org/2000/svg" xmlns:xlink="http://www.w3.org/1999/xlink" x="0px" y="0px"
	 width="58px" height="58px" viewBox="0 0 58 58" style="enable-background:new 0 0 58 58;" xml:space="preserve">
<g>
	<defs>
		<rect id="SVGID_1_" width="58" height="58"/>
	</defs>
	<clipPath id="SVGID_2_">
		<use xlink:href="#SVGID_1_"  style="overflow:visible;"/>
	</clipPath>
	<path style="clip-path:url(#SVGID_2_);" d="M51.933,34c-0.155,0-0.312-0.015-0.468-0.044c-0.682-0.129-1.272-0.526-1.662-1.119
		l-9.359-14.21c-0.796-1.211-0.491-2.867,0.678-3.692l3.502-2.472c0.563-0.398,1.244-0.545,1.912-0.419
		c0.683,0.129,1.272,0.526,1.662,1.119l9.358,14.21c0.796,1.211,0.493,2.867-0.677,3.692l-3.502,2.472
		C52.944,33.842,52.444,34,51.933,34 M53.089,33.129h0.009H53.089z M46.069,13c-0.308,0-0.608,0.096-0.869,0.279l-3.503,2.472
		c-0.732,0.518-0.921,1.562-0.417,2.326l9.358,14.21c0.239,0.364,0.6,0.608,1.012,0.687c0.404,0.076,0.811-0.014,1.15-0.253
		l3.502-2.472c0.733-0.518,0.92-1.561,0.417-2.326l-9.359-14.21c-0.238-0.364-0.599-0.609-1.012-0.687
		C46.256,13.009,46.163,13,46.069,13"/>
	<path style="clip-path:url(#SVGID_2_);" d="M22.294,31c-0.841,0-1.685-0.32-2.33-0.96c-0.63-0.625-0.973-1.457-0.964-2.341
		c0.009-0.885,0.368-1.709,1.011-2.322l7.724-7.654C28.205,17.257,28.83,17,29.494,17H40.5c0.276,0,0.5,0.224,0.5,0.5
		S40.776,18,40.5,18H29.494c-0.398,0-0.773,0.154-1.055,0.433l-7.732,7.662c-0.452,0.43-0.701,1.001-0.707,1.613
		s0.232,1.188,0.669,1.623c0.872,0.864,2.265,0.89,3.169,0.062l5.351-4.287c0.214-0.17,0.528-0.137,0.702,0.078
		c0.172,0.215,0.138,0.53-0.077,0.703l-5.325,4.265C23.871,30.717,23.084,31,22.294,31"/>
	<path style="clip-path:url(#SVGID_2_);" d="M46.416,41c-0.094,0-0.188-0.044-0.267-0.133c-0.177-0.202-0.2-0.563-0.053-0.806
		l4.167-6.856c0.147-0.242,0.411-0.274,0.587-0.073c0.176,0.202,0.2,0.563,0.053,0.805l-4.167,6.858
		C46.654,40.93,46.535,41,46.416,41"/>
	<path style="clip-path:url(#SVGID_2_);" d="M35.5,31c-0.183,0-0.359-0.102-0.447-0.276c-0.123-0.247-0.023-0.547,0.224-0.671
		C37.03,29.176,38,25.622,38,23.5c0-0.276,0.224-0.5,0.5-0.5s0.5,0.224,0.5,0.5c0,2.343-1.041,6.33-3.276,7.447
		C35.651,30.983,35.575,31,35.5,31"/>
	<path style="clip-path:url(#SVGID_2_);" d="M6.373,36c-0.53,0-1.046-0.156-1.496-0.459l-3.693-2.482
		c-1.204-0.809-1.543-2.402-0.77-3.628l8.932-14.177c0.389-0.618,0.998-1.042,1.716-1.193c0.72-0.155,1.452-0.011,2.061,0.399
		l3.693,2.482c1.204,0.81,1.543,2.403,0.771,3.629L8.654,34.747c-0.389,0.619-0.998,1.042-1.716,1.193C6.75,35.98,6.561,36,6.373,36
		 M11.625,15.002c-0.118,0-0.238,0.012-0.356,0.037c-0.451,0.096-0.834,0.361-1.078,0.748L1.259,29.964
		c-0.481,0.764-0.269,1.759,0.483,2.265l3.693,2.482c0.382,0.258,0.843,0.347,1.296,0.251c0.451-0.095,0.834-0.361,1.078-0.748
		l8.932-14.177c0.481-0.764,0.27-1.759-0.483-2.265l-3.693-2.482C12.283,15.1,11.958,15.002,11.625,15.002"/>
	<path style="clip-path:url(#SVGID_2_);" d="M11.5,38c-0.128,0-0.256-0.049-0.354-0.146l-3-3c-0.195-0.195-0.195-0.512,0-0.707
		c0.196-0.195,0.512-0.195,0.708,0l3,3c0.195,0.195,0.195,0.512,0,0.707C11.756,37.951,11.628,38,11.5,38"/>
	<path style="clip-path:url(#SVGID_2_);" d="M45.658,47c-0.809,0-1.615-0.277-2.256-0.836l-10.525-8.997
		c-0.21-0.18-0.235-0.495-0.055-0.705c0.18-0.209,0.496-0.233,0.705-0.055l10.528,9c0.936,0.814,2.37,0.789,3.27-0.058
		c0.439-0.418,0.681-0.97,0.675-1.556c-0.006-0.587-0.257-1.136-0.708-1.545L29.165,25.87c-0.205-0.185-0.221-0.5-0.036-0.706
		c0.186-0.205,0.502-0.219,0.706-0.036l18.128,16.38c0.66,0.6,1.028,1.407,1.037,2.276c0.009,0.867-0.343,1.682-0.988,2.292
		C47.36,46.691,46.51,47,45.658,47"/>
	<path style="clip-path:url(#SVGID_2_);" d="M25.555,21c-0.051,0-0.102-0.01-0.153-0.03l-3.126-0.878
		C22.128,20.03,21.974,20,21.816,20h-4.372C17.198,20,17,19.776,17,19.5s0.198-0.5,0.444-0.5h4.372c0.263,0,0.52,0.052,0.766,0.152
		l3.126,0.878c0.231,0.096,0.349,0.383,0.265,0.642C25.907,20.875,25.736,21,25.555,21"/>
	<path style="clip-path:url(#SVGID_2_);" d="M41.714,51c-0.797,0-1.595-0.288-2.229-0.868l-10.319-9.26
		c-0.205-0.186-0.222-0.501-0.038-0.706c0.186-0.206,0.501-0.222,0.706-0.038l10.323,9.264c0.912,0.836,2.305,0.807,3.174-0.06
		c0.438-0.433,0.675-1.009,0.669-1.621s-0.255-1.184-0.7-1.607c-0.2-0.19-0.208-0.508-0.019-0.706
		c0.192-0.201,0.509-0.206,0.707-0.019c0.644,0.613,1.002,1.438,1.012,2.322c0.009,0.885-0.334,1.716-0.964,2.341
		C43.394,50.68,42.554,51,41.714,51"/>
	<path style="clip-path:url(#SVGID_2_);" d="M13.592,44c-0.933,0-1.854-0.346-2.55-1.043c-1.43-1.43-1.383-3.803,0.103-5.289
		l2.523-2.521c1.486-1.487,3.859-1.534,5.289-0.104c1.43,1.432,1.383,3.805-0.103,5.289l-2.523,2.523
		C15.569,43.616,14.574,44,13.592,44 M11.75,42.25c1.041,1.039,2.779,0.993,3.875-0.104l2.522-2.522
		c1.097-1.096,1.143-2.834,0.104-3.874c-1.042-1.039-2.779-0.994-3.875,0.104l-2.522,2.522C10.756,39.473,10.709,41.21,11.75,42.25"
		/>
	<path style="clip-path:url(#SVGID_2_);" d="M17.597,49c-0.932,0-1.852-0.346-2.548-1.043c-1.336-1.338-1.403-3.489-0.157-5.004
		c0.175-0.213,0.491-0.245,0.703-0.068c0.213,0.175,0.244,0.491,0.068,0.704c-0.917,1.116-0.877,2.689,0.093,3.661
		c1.038,1.038,2.774,0.993,3.872-0.104l2.521-2.523c1.095-1.097,1.142-2.835,0.103-3.876c-0.926-0.926-2.451-1-3.551-0.175
		c-0.219,0.165-0.533,0.12-0.7-0.102c-0.165-0.221-0.12-0.534,0.101-0.701c1.494-1.121,3.582-1.005,4.857,0.27
		c1.428,1.431,1.381,3.805-0.104,5.291l-2.52,2.523C19.573,48.616,18.578,49,17.597,49"/>
	<path style="clip-path:url(#SVGID_2_);" d="M22.594,53c-0.933,0-1.853-0.346-2.549-1.042c-1.318-1.318-1.399-3.449-0.191-4.957
		c0.173-0.216,0.491-0.248,0.704-0.078c0.215,0.172,0.25,0.487,0.078,0.703c-0.89,1.111-0.84,2.669,0.116,3.625
		c1.04,1.037,2.777,0.992,3.873-0.103l2.522-2.521c1.096-1.095,1.143-2.832,0.104-3.872c-0.971-0.97-2.544-1.009-3.659-0.093
		c-0.212,0.177-0.527,0.145-0.703-0.068c-0.176-0.213-0.146-0.527,0.068-0.703c1.514-1.244,3.664-1.179,5.001,0.157
		c1.429,1.43,1.382,3.801-0.104,5.286l-2.521,2.521C24.571,52.616,23.576,53,22.594,53"/>
	<path style="clip-path:url(#SVGID_2_);" d="M26.597,58c-0.932,0-1.852-0.346-2.548-1.042c-1.335-1.335-1.403-3.483-0.159-4.996
		c0.177-0.214,0.492-0.243,0.704-0.07c0.213,0.177,0.244,0.491,0.069,0.704c-0.916,1.114-0.876,2.687,0.093,3.655
		c1.038,1.038,2.775,0.993,3.872-0.103l2.521-2.521c1.095-1.095,1.143-2.832,0.104-3.872c-0.971-0.97-2.543-1.01-3.657-0.093
		c-0.212,0.176-0.527,0.146-0.703-0.068c-0.176-0.213-0.146-0.527,0.068-0.703c1.513-1.246,3.664-1.178,5,0.157
		c1.428,1.43,1.381,3.801-0.104,5.286l-2.52,2.521C28.573,57.616,27.578,58,26.597,58"/>
	<path style="clip-path:url(#SVGID_2_);" d="M37.758,55c-0.802,0-1.605-0.287-2.241-0.866l-3.365-3.276
		c-0.198-0.193-0.202-0.51-0.01-0.706c0.194-0.197,0.511-0.201,0.707-0.011l3.353,3.266c0.904,0.821,2.313,0.794,3.193-0.074
		c0.396-0.39,0.611-0.956,0.605-1.592c-0.008-0.718-0.302-1.419-0.784-1.877c-0.2-0.191-0.209-0.507-0.021-0.707
		c0.191-0.199,0.507-0.21,0.707-0.02c0.678,0.641,1.087,1.61,1.098,2.594c0.009,0.91-0.313,1.732-0.904,2.313
		C39.448,54.68,38.604,55,37.758,55"/>
	<path style="clip-path:url(#SVGID_2_);fill:#FF6C7A;" d="M30.5,8C30.224,8,30,7.776,30,7.5v-7C30,0.224,30.224,0,30.5,0
		S31,0.224,31,0.5v7C31,7.776,30.776,8,30.5,8"/>
	<path style="clip-path:url(#SVGID_2_);fill:#FF6C7A;" d="M20.5,11c-0.155,0-0.31-0.072-0.407-0.209l-5-7
		c-0.16-0.225-0.108-0.537,0.116-0.698c0.226-0.159,0.537-0.11,0.699,0.116l4.999,7c0.16,0.226,0.109,0.537-0.116,0.698
		C20.702,10.97,20.601,11,20.5,11"/>
	<path style="clip-path:url(#SVGID_2_);fill:#FF6C7A;" d="M39.5,11c0.155,0,0.311-0.072,0.407-0.209l5-7
		c0.16-0.225,0.108-0.537-0.116-0.698c-0.226-0.159-0.537-0.11-0.699,0.116l-4.999,7c-0.159,0.226-0.108,0.537,0.116,0.698
		C39.298,10.97,39.399,11,39.5,11"/>
</g>
</svg>
