<svg 
 xmlns="http://www.w3.org/2000/svg"
 xmlns:xlink="http://www.w3.org/1999/xlink"
 width="14px" height="18px">
<path fill-rule="evenodd"  fill="rgb(20, 32, 52)"
 d="M13.000,8.000 L12.000,8.000 L12.000,5.000 C12.000,2.243 9.757,-0.000 7.000,-0.000 C4.243,-0.000 2.000,2.243 2.000,5.000 L2.000,8.000 L1.000,8.000 C0.448,8.000 -0.000,8.448 -0.000,9.000 L-0.000,17.000 C-0.000,17.552 0.448,18.000 1.000,18.000 L13.000,18.000 C13.552,18.000 14.000,17.552 14.000,17.000 L14.000,9.000 C14.000,8.448 13.552,8.000 13.000,8.000 ZM4.000,5.000 C4.000,3.346 5.346,2.000 7.000,2.000 C8.654,2.000 10.000,3.346 10.000,5.000 L10.000,8.000 L4.000,8.000 L4.000,5.000 Z"/>
</svg>