<svg 
 xmlns="http://www.w3.org/2000/svg"
 xmlns:xlink="http://www.w3.org/1999/xlink"
 width="24px" height="24px">
<path fill-rule="evenodd"  fill="rgb(255, 255, 255)"
 d="M20.121,20.818 C17.894,22.870 15.010,24.000 12.000,24.000 C8.990,24.000 6.106,22.870 3.879,20.818 C1.414,18.546 -0.000,15.332 -0.000,12.000 C-0.000,5.383 5.383,-0.000 12.000,-0.000 C18.617,-0.000 24.000,5.383 24.000,12.000 C24.000,15.332 22.586,18.546 20.121,20.818 ZM18.211,19.821 C18.179,19.759 18.153,19.694 18.120,19.633 C18.051,19.507 17.975,19.385 17.899,19.264 C17.795,19.099 17.686,18.937 17.570,18.782 C17.483,18.666 17.393,18.555 17.300,18.446 C17.176,18.301 17.046,18.162 16.912,18.028 C16.810,17.927 16.707,17.827 16.599,17.733 C16.457,17.608 16.308,17.492 16.157,17.380 C16.043,17.295 15.929,17.210 15.809,17.132 C15.649,17.028 15.482,16.936 15.314,16.845 C15.191,16.779 15.070,16.710 14.943,16.651 C14.762,16.568 14.574,16.500 14.386,16.432 C14.261,16.387 14.139,16.335 14.012,16.297 C13.799,16.234 13.579,16.190 13.359,16.147 C13.247,16.125 13.140,16.094 13.027,16.077 C12.691,16.028 12.348,16.000 12.000,16.000 C11.652,16.000 11.309,16.028 10.973,16.077 C10.860,16.094 10.752,16.125 10.641,16.147 C10.421,16.190 10.201,16.234 9.988,16.297 C9.860,16.335 9.739,16.387 9.614,16.432 C9.426,16.500 9.238,16.568 9.057,16.651 C8.930,16.710 8.809,16.779 8.686,16.845 C8.518,16.936 8.351,17.028 8.191,17.132 C8.071,17.210 7.957,17.295 7.843,17.380 C7.692,17.492 7.543,17.608 7.401,17.733 C7.293,17.827 7.190,17.927 7.088,18.028 C6.954,18.162 6.824,18.301 6.700,18.446 C6.607,18.555 6.517,18.666 6.430,18.782 C6.314,18.937 6.205,19.099 6.101,19.264 C6.025,19.385 5.949,19.507 5.880,19.633 C5.847,19.694 5.821,19.759 5.789,19.821 C7.558,21.230 9.737,22.000 12.000,22.000 C14.263,22.000 16.442,21.230 18.211,19.821 ZM15.000,11.000 C15.000,9.346 13.654,8.000 12.000,8.000 C10.346,8.000 9.000,9.346 9.000,11.000 C9.000,12.654 10.346,14.000 12.000,14.000 C13.654,14.000 15.000,12.654 15.000,11.000 ZM12.000,2.000 C6.486,2.000 2.000,6.486 2.000,12.000 C2.000,14.358 2.806,16.572 4.293,18.358 C4.324,18.306 4.363,18.261 4.395,18.210 C4.505,18.036 4.623,17.870 4.743,17.705 C5.195,17.081 5.719,16.525 6.305,16.043 C6.306,16.043 6.307,16.042 6.308,16.041 C7.005,15.468 7.778,14.994 8.618,14.655 C7.631,13.741 7.000,12.448 7.000,11.000 C7.000,8.243 9.243,6.000 12.000,6.000 C14.757,6.000 17.000,8.243 17.000,11.000 C17.000,12.448 16.369,13.741 15.381,14.655 C16.222,14.994 16.995,15.468 17.692,16.041 C17.693,16.042 17.695,16.043 17.696,16.044 C18.281,16.525 18.804,17.080 19.256,17.703 C19.377,17.869 19.495,18.036 19.606,18.211 C19.637,18.262 19.676,18.307 19.707,18.358 C21.194,16.572 22.000,14.358 22.000,12.000 C22.000,6.486 17.514,2.000 12.000,2.000 Z"/>
</svg>