<svg 
 xmlns="http://www.w3.org/2000/svg"
 xmlns:xlink="http://www.w3.org/1999/xlink"
 width="24px" height="24px">
<path fill-rule="evenodd"  fill="rgb(102, 110, 123)"
 d="M21.000,24.000 C20.229,24.000 19.532,23.699 19.000,23.220 C18.468,23.699 17.771,24.000 17.000,24.000 L3.000,24.000 C1.346,24.000 -0.000,22.654 -0.000,21.000 L-0.000,3.000 C-0.000,1.346 1.346,-0.000 3.000,-0.000 L17.000,-0.000 C18.654,-0.000 20.000,1.346 20.000,3.000 L20.000,8.184 C20.314,8.072 20.648,8.000 21.000,8.000 C22.654,8.000 24.000,9.346 24.000,11.000 L24.000,21.000 C24.000,22.654 22.654,24.000 21.000,24.000 ZM18.000,11.000 L18.000,3.000 C18.000,2.448 17.552,2.000 17.000,2.000 L3.000,2.000 C2.448,2.000 2.000,2.448 2.000,3.000 L2.000,21.000 C2.000,21.552 2.448,22.000 3.000,22.000 L17.000,22.000 C17.552,22.000 18.000,21.552 18.000,21.000 L18.000,11.000 ZM22.000,11.000 C22.000,10.448 21.552,10.000 21.000,10.000 C20.448,10.000 20.000,10.448 20.000,11.000 L20.000,21.000 C20.000,21.552 20.448,22.000 21.000,22.000 C21.552,22.000 22.000,21.552 22.000,21.000 L22.000,11.000 ZM14.000,13.000 L6.000,13.000 C5.447,13.000 5.000,12.553 5.000,12.000 C5.000,11.447 5.447,11.000 6.000,11.000 L14.000,11.000 C14.553,11.000 15.000,11.447 15.000,12.000 C15.000,12.553 14.553,13.000 14.000,13.000 Z"/>
</svg>