<svg 
 xmlns="http://www.w3.org/2000/svg"
 xmlns:xlink="http://www.w3.org/1999/xlink"
 width="18px" height="18px">
<path fill-rule="evenodd"  fill="rgb(149, 149, 149)"
 d="M15.000,18.000 L3.000,18.000 C1.346,18.000 -0.000,16.654 -0.000,15.000 L-0.000,3.000 C-0.000,1.346 1.346,-0.000 3.000,-0.000 L15.000,-0.000 C16.654,-0.000 18.000,1.346 18.000,3.000 L18.000,15.000 C18.000,16.654 16.654,18.000 15.000,18.000 ZM16.000,3.000 C16.000,2.448 15.552,2.000 15.000,2.000 L3.000,2.000 C2.448,2.000 2.000,2.448 2.000,3.000 L2.000,15.000 C2.000,15.552 2.448,16.000 3.000,16.000 L15.000,16.000 C15.552,16.000 16.000,15.552 16.000,15.000 L16.000,3.000 ZM8.999,10.955 L8.973,10.955 L5.877,10.955 L4.322,7.451 C5.168,7.927 5.618,7.956 5.618,7.956 C6.218,9.920 7.320,9.558 7.320,9.558 C8.394,9.254 7.881,7.732 7.881,7.732 C8.822,6.962 9.000,6.000 9.000,6.000 C9.000,6.000 9.178,6.962 10.119,7.732 C10.119,7.732 9.606,9.254 10.680,9.558 C10.680,9.558 11.782,9.920 12.382,7.956 C12.382,7.956 12.832,7.927 13.677,7.451 L12.123,10.955 L8.999,10.955 ZM11.670,12.000 L6.331,12.000 L6.064,11.394 L11.937,11.394 L11.670,12.000 Z"/>
</svg>