<svg 
 xmlns="http://www.w3.org/2000/svg"
 xmlns:xlink="http://www.w3.org/1999/xlink"
 width="24px" height="24px">
<path fill-rule="evenodd"  fill="rgb(102, 110, 123)"
 d="M21.000,24.000 L3.000,24.000 C1.346,24.000 -0.000,22.654 -0.000,21.000 L-0.000,3.000 C-0.000,1.346 1.346,-0.000 3.000,-0.000 L21.000,-0.000 C22.654,-0.000 24.000,1.346 24.000,3.000 L24.000,21.000 C24.000,22.654 22.654,24.000 21.000,24.000 ZM22.000,3.000 C22.000,2.448 21.552,2.000 21.000,2.000 L3.000,2.000 C2.448,2.000 2.000,2.448 2.000,3.000 L2.000,21.000 C2.000,21.552 2.448,22.000 3.000,22.000 L21.000,22.000 C21.552,22.000 22.000,21.552 22.000,21.000 L22.000,3.000 ZM11.999,14.508 L11.965,14.508 L7.994,14.508 L6.000,10.013 C7.084,10.624 7.662,10.661 7.662,10.661 C8.431,13.180 9.845,12.716 9.845,12.716 C11.223,12.326 10.565,10.374 10.565,10.374 C11.772,9.386 12.000,8.152 12.000,8.152 C12.000,8.152 12.228,9.386 13.435,10.374 C13.435,10.374 12.777,12.326 14.155,12.716 C14.155,12.716 15.569,13.180 16.338,10.661 C16.338,10.661 16.915,10.624 18.000,10.013 L16.006,14.508 L11.999,14.508 ZM15.425,15.848 L8.577,15.848 L8.234,15.071 L15.768,15.071 L15.425,15.848 Z"/>
</svg>