<svg 
 xmlns="http://www.w3.org/2000/svg"
 xmlns:xlink="http://www.w3.org/1999/xlink"
 width="24px" height="24px">
<path fill-rule="evenodd"  fill="rgb(255, 255, 255)"
 d="M21.000,20.000 L3.000,20.000 C1.346,20.000 -0.000,18.654 -0.000,17.000 L-0.000,3.000 C-0.000,1.346 1.346,-0.000 3.000,-0.000 L21.000,-0.000 C22.654,-0.000 24.000,1.346 24.000,3.000 L24.000,17.000 C24.000,18.654 22.654,20.000 21.000,20.000 ZM22.000,3.000 C22.000,2.448 21.552,2.000 21.000,2.000 L3.000,2.000 C2.448,2.000 2.000,2.448 2.000,3.000 L2.000,17.000 C2.000,17.552 2.448,18.000 3.000,18.000 L21.000,18.000 C21.552,18.000 22.000,17.552 22.000,17.000 L22.000,3.000 ZM11.707,12.707 C11.512,12.902 11.256,13.000 11.000,13.000 C10.744,13.000 10.488,12.902 10.293,12.707 L8.293,10.707 C7.902,10.316 7.902,9.684 8.293,9.293 C8.683,8.902 9.316,8.902 9.707,9.293 L11.000,10.586 L14.293,7.293 C14.684,6.902 15.316,6.902 15.707,7.293 C16.098,7.684 16.098,8.316 15.707,8.707 L11.707,12.707 ZM1.000,22.000 L23.000,22.000 C23.553,22.000 24.000,22.447 24.000,23.000 C24.000,23.553 23.553,24.000 23.000,24.000 L1.000,24.000 C0.447,24.000 -0.000,23.553 -0.000,23.000 C-0.000,22.447 0.447,22.000 1.000,22.000 Z"/>
</svg>