<svg 
 xmlns="http://www.w3.org/2000/svg"
 xmlns:xlink="http://www.w3.org/1999/xlink"
 width="24px" height="24px">
<path fill-rule="evenodd"  fill="rgb(102, 110, 123)"
 d="M23.746,14.981 L20.989,20.279 C20.867,20.515 20.656,20.691 20.403,20.770 C20.154,20.848 19.879,20.821 19.646,20.694 L18.062,19.834 C17.402,20.368 16.683,20.811 15.914,21.154 L15.914,23.000 C15.914,23.553 15.471,24.000 14.924,24.000 L9.052,24.000 C8.505,24.000 8.063,23.553 8.063,23.000 L8.063,21.154 C7.609,20.950 7.170,20.712 6.750,20.440 L5.264,21.465 C5.047,21.615 4.779,21.673 4.518,21.620 C4.258,21.569 4.030,21.416 3.883,21.193 L0.600,16.220 C0.299,15.764 0.417,15.148 0.865,14.839 L2.361,13.808 C2.249,13.198 2.192,12.593 2.192,12.000 C2.192,11.750 2.203,11.497 2.227,11.229 L0.637,10.365 C0.159,10.105 -0.022,9.505 0.231,9.019 L2.987,3.722 C3.110,3.486 3.320,3.310 3.573,3.231 C3.825,3.154 4.097,3.181 4.331,3.307 L5.913,4.167 C6.574,3.633 7.293,3.190 8.063,2.847 L8.063,1.000 C8.063,0.447 8.505,-0.000 9.052,-0.000 L14.924,-0.000 C15.471,-0.000 15.914,0.447 15.914,1.000 L15.914,2.847 C16.368,3.050 16.806,3.288 17.225,3.561 L18.712,2.536 C18.932,2.386 19.202,2.329 19.458,2.381 C19.718,2.432 19.946,2.585 20.093,2.808 L23.377,7.781 C23.677,8.237 23.559,8.853 23.111,9.162 L21.615,10.193 C21.728,10.803 21.785,11.408 21.785,12.000 C21.785,12.250 21.773,12.504 21.750,12.771 L23.339,13.635 C23.817,13.895 23.999,14.495 23.746,14.981 ZM19.806,12.000 C19.806,11.351 19.719,10.676 19.548,9.994 C19.446,9.587 19.605,9.159 19.949,8.922 L21.188,8.067 L19.001,4.758 L17.779,5.600 C17.428,5.842 16.968,5.831 16.629,5.574 C16.004,5.102 15.318,4.729 14.591,4.465 C14.198,4.322 13.935,3.945 13.935,3.523 L13.935,2.000 L10.041,2.000 L10.041,3.523 C10.041,3.945 9.780,4.322 9.386,4.465 C8.394,4.824 7.496,5.377 6.716,6.106 C6.405,6.397 5.946,6.454 5.575,6.254 L4.273,5.546 L2.438,9.073 L3.757,9.790 C4.124,9.990 4.328,10.400 4.267,10.817 C4.201,11.268 4.170,11.644 4.170,12.000 C4.170,12.651 4.257,13.326 4.428,14.006 C4.532,14.413 4.371,14.842 4.027,15.079 L2.789,15.934 L4.975,19.243 L6.197,18.400 C6.546,18.159 7.011,18.169 7.348,18.427 C7.972,18.899 8.657,19.272 9.385,19.536 C9.779,19.679 10.041,20.056 10.041,20.478 L10.041,22.000 L13.935,22.000 L13.935,20.478 C13.935,20.056 14.197,19.679 14.590,19.536 C15.583,19.177 16.481,18.624 17.259,17.895 C17.569,17.603 18.027,17.545 18.400,17.747 L19.704,18.455 L21.538,14.928 L20.219,14.211 C19.852,14.012 19.649,13.601 19.709,13.184 C19.775,12.733 19.806,12.357 19.806,12.000 ZM11.988,16.000 C9.806,16.000 8.031,14.206 8.031,12.000 C8.031,9.794 9.806,8.000 11.988,8.000 C14.171,8.000 15.945,9.794 15.945,12.000 C15.945,14.206 14.171,16.000 11.988,16.000 ZM11.988,10.000 C10.897,10.000 10.010,10.897 10.010,12.000 C10.010,13.103 10.897,14.000 11.988,14.000 C13.079,14.000 13.967,13.103 13.967,12.000 C13.967,10.897 13.079,10.000 11.988,10.000 Z"/>
</svg>