<svg 
 xmlns="http://www.w3.org/2000/svg"
 xmlns:xlink="http://www.w3.org/1999/xlink"
 width="130px" height="20px">
<path fill-rule="evenodd"  fill="rgb(0, 0, 0)"
 d="M127.684,15.596 L126.016,11.179 L121.013,11.179 L119.464,15.596 L117.125,15.596 L122.597,0.237 L124.305,0.233 L130.008,15.596 L127.684,15.596 ZM123.421,4.308 L121.838,8.825 L125.127,8.825 L123.421,4.308 ZM100.749,4.807 L100.749,15.596 L98.714,15.596 L98.713,0.228 L100.508,0.228 L107.728,11.142 L107.728,0.228 L109.788,0.228 L109.788,15.596 L107.894,15.596 L100.749,4.807 ZM86.275,0.228 L88.750,0.228 L88.750,15.596 L86.254,15.596 L86.275,0.228 ZM73.032,15.596 L70.844,15.596 L70.818,2.357 L66.701,2.382 L66.694,0.228 L77.246,0.228 L77.246,2.345 L73.032,2.345 L73.032,15.596 ZM51.348,4.270 C51.394,4.949 52.637,5.771 53.113,6.031 C56.861,7.833 57.518,8.851 57.629,9.107 C59.547,11.751 57.516,14.145 57.495,14.169 C56.218,15.605 54.482,15.801 53.632,15.801 C53.339,15.801 53.151,15.777 53.123,15.774 C50.221,15.528 48.953,14.426 48.900,14.380 L48.821,14.309 L48.821,11.091 L49.229,11.522 C50.978,13.371 52.590,13.470 52.606,13.471 L52.633,13.473 C54.970,13.844 55.668,12.514 55.674,12.500 C56.007,11.788 55.891,11.092 55.327,10.436 C54.886,9.925 54.338,9.635 54.333,9.632 C50.578,7.551 49.925,6.865 49.899,6.837 C48.236,5.275 48.857,3.192 48.885,3.104 C49.659,0.404 52.662,0.113 52.692,0.110 C55.464,-0.408 57.570,1.002 57.658,1.062 L57.761,1.132 L57.761,4.241 L57.337,3.683 C57.149,3.436 56.531,3.075 56.308,2.956 C54.588,1.950 52.803,2.403 52.785,2.408 C52.109,2.587 51.655,2.881 51.436,3.284 C51.187,3.744 51.334,4.206 51.336,4.210 L51.348,4.270 ZM29.214,0.240 L38.544,0.240 L38.535,2.427 L31.767,2.427 L31.767,6.736 L38.296,6.736 L38.296,8.972 L31.807,8.972 L31.807,13.341 L38.738,13.353 L38.738,15.576 L29.214,15.576 L29.214,0.240 ZM17.596,10.171 C16.687,10.171 15.947,9.488 15.947,8.649 C15.947,7.811 16.687,7.128 17.596,7.128 C18.506,7.128 19.245,7.811 19.245,8.649 C19.245,9.488 18.506,10.171 17.596,10.171 ZM1.555,20.008 C1.224,20.008 1.019,19.973 0.999,19.969 L0.867,19.945 L-0.000,17.655 L0.359,17.672 C2.103,17.756 2.719,17.242 2.725,17.237 L2.749,17.218 C2.770,17.202 3.313,16.798 3.322,15.749 L3.322,2.144 L1.422,2.144 L1.422,0.240 L5.978,0.240 L5.978,15.441 C6.018,18.672 3.964,19.461 3.760,19.531 C2.862,19.927 2.061,20.008 1.555,20.008 Z"/>
</svg>